<svg width="41" height="40" viewBox="0 0 41 40" fill="none" xmlns="http://www.w3.org/2000/svg">
<path d="M20.4997 6.66659C27.8513 6.66659 33.833 12.6483 33.833 19.9999C33.833 27.3516 27.8513 33.3333 20.4997 33.3333C13.148 33.3333 7.16634 27.3516 7.16634 19.9999C7.16634 12.6483 13.148 6.66659 20.4997 6.66659ZM20.4997 3.33325C11.2947 3.33325 3.83301 10.7949 3.83301 19.9999C3.83301 29.2049 11.2947 36.6666 20.4997 36.6666C29.7047 36.6666 37.1663 29.2049 37.1663 19.9999C37.1663 10.7949 29.7047 3.33325 20.4997 3.33325ZM28.833 18.3333H22.1663V11.6666H18.833V18.3333H12.1663V21.6666H18.833V28.3333H22.1663V21.6666H28.833V18.3333Z" fill="#AEB3BB"/>
</svg>
