<svg width="129" height="33" viewBox="0 0 129 33" fill="none" xmlns="http://www.w3.org/2000/svg">
<rect y="0.5" width="129" height="32" rx="16" fill="#EFE5FF"/>
<path d="M28.0166 5.24902C32.0107 5.24902 35.249 8.48721 35.249 12.4814C35.249 13.9684 34.7988 15.3497 34.0293 16.499C34.799 17.6485 35.249 19.0303 35.249 20.5176C35.2489 24.5117 32.0106 27.75 28.0166 27.75C26.5297 27.7499 25.1482 27.2998 23.999 26.5303C22.8498 27.2997 21.4683 27.75 19.9814 27.75C15.9876 27.7498 12.75 24.5117 12.75 20.5176C12.75 19.0305 13.1992 17.6484 13.9688 16.499C13.1995 15.3498 12.75 13.9683 12.75 12.4814C12.75 8.4874 15.9876 5.24927 19.9814 5.24902C21.4679 5.24902 22.85 5.6978 23.999 6.4668C25.1481 5.69756 26.53 5.24912 28.0166 5.24902Z" fill="url(#paint0_linear_351_4511)"/>
<path d="M24 8.78516C25.2141 12.4275 28.0723 15.2856 31.7146 16.4998C28.0723 17.7139 25.2141 20.572 24 24.2144C22.7859 20.572 19.9277 17.7139 16.2854 16.4998C19.9277 15.2856 22.7859 12.4275 24 8.78516Z" fill="white"/>
<path d="M56.402 22.112H54.82L53.784 19.298H49.542L48.464 22.112H46.882L50.788 11.78H52.566L56.402 22.112ZM53.294 18.01L51.684 13.656L50.018 18.01H53.294ZM59.7606 11.78V22.112H58.2766V11.78H59.7606ZM73.3972 13.964V10.674H74.9372V19.76H73.3972V15.21H71.2272V13.964H73.3972ZM68.3572 18.99V21.65H75.2452V22.882H66.8032V18.99H68.3572ZM71.6752 11.57V12.802H69.1272V13.138C69.1272 13.9313 69.3792 14.6733 69.8832 15.364C70.3966 16.0453 71.1106 16.54 72.0252 16.848L71.2692 18.052C70.5972 17.8187 70.0139 17.478 69.5192 17.03C69.0339 16.582 68.6512 16.05 68.3712 15.434C68.1006 16.106 67.7039 16.694 67.1812 17.198C66.6679 17.702 66.0519 18.0753 65.3332 18.318L64.5492 17.1C65.5012 16.7733 66.2432 16.246 66.7752 15.518C67.3072 14.79 67.5732 13.9967 67.5732 13.138V12.802H64.9832V11.57H71.6752ZM81.4896 11.682V13.642C81.4896 14.4167 81.6156 15.168 81.8676 15.896C82.1196 16.624 82.4836 17.2727 82.9596 17.842C83.4449 18.402 84.0142 18.8267 84.6676 19.116L83.7716 20.362C83.0622 20.0353 82.4509 19.5593 81.9376 18.934C81.4242 18.2993 81.0229 17.5667 80.7336 16.736C80.4442 17.632 80.0336 18.4207 79.5016 19.102C78.9789 19.774 78.3489 20.2827 77.6116 20.628L76.6876 19.354C77.3502 19.0553 77.9242 18.612 78.4096 18.024C78.9042 17.436 79.2822 16.764 79.5436 16.008C79.8049 15.2427 79.9356 14.454 79.9356 13.642V11.682H81.4896ZM87.0896 10.646V23.148H85.5496V10.646H87.0896ZM103.56 18.15V19.41H98.6885V23.148H97.1345V19.41H92.2905V18.15H103.56ZM97.1345 12.13V10.688H98.6885V12.13H102.51V13.362H98.7025C98.7585 13.782 98.9638 14.1927 99.3185 14.594C99.6825 14.986 100.172 15.3267 100.788 15.616C101.404 15.896 102.109 16.0873 102.902 16.19L102.356 17.394C101.348 17.2727 100.457 17.002 99.6825 16.582C98.9171 16.162 98.3291 15.644 97.9185 15.028C97.5171 15.644 96.9291 16.162 96.1545 16.582C95.3798 16.9927 94.4791 17.2633 93.4525 17.394L92.9205 16.19C93.7138 16.0873 94.4185 15.896 95.0345 15.616C95.6598 15.3267 96.1498 14.986 96.5045 14.594C96.8591 14.202 97.0645 13.7913 97.1205 13.362H93.3265V12.13H97.1345ZM107.439 12.214V10.758H108.965V12.214H111.541V13.418H108.965V13.6C108.965 14.3747 109.221 15.0887 109.735 15.742C110.257 16.386 110.995 16.8527 111.947 17.142L111.205 18.346C110.514 18.1313 109.912 17.814 109.399 17.394C108.895 16.9647 108.503 16.4607 108.223 15.882C107.943 16.5073 107.551 17.0533 107.047 17.52C106.543 17.9773 105.936 18.3273 105.227 18.57L104.471 17.352C105.423 17.044 106.155 16.5493 106.669 15.868C107.182 15.1867 107.439 14.4307 107.439 13.6V13.418H104.863V12.214H107.439ZM113.333 14.37V10.674H114.873V19.928H113.333V15.63H111.121V14.37H113.333ZM108.293 19.13V21.65H115.181V22.882H106.739V19.13H108.293Z" fill="#7E37F9"/>
<defs>
<linearGradient id="paint0_linear_351_4511" x1="12.9107" y1="5.57047" x2="35.251" y2="27.7481" gradientUnits="userSpaceOnUse">
<stop offset="0.0817308" stop-color="#7E37F9"/>
<stop offset="0.5" stop-color="#DECBFF"/>
<stop offset="0.947115" stop-color="#4BB4FE"/>
</linearGradient>
</defs>
</svg>
