<svg width="32" height="9" viewBox="0 0 32 9" fill="none" xmlns="http://www.w3.org/2000/svg">
<path d="M5.964 2.024H7.296V8.012H5.964V5.024C5.964 3.92 4.968 3.02 3.72 3.02C2.484 3.02 1.476 3.92 1.476 5.024C1.476 6.116 2.148 7.016 2.976 7.016C3.804 7.016 4.476 6.272 4.476 5.348H5.796C5.796 6.908 4.536 8.18 2.976 8.18C1.416 8.18 0.156 6.764 0.156 5.024C0.156 3.272 1.752 1.856 3.72 1.856C4.284 1.856 4.824 1.976 5.292 2.18C5.604 2.312 5.844 2.564 5.988 2.864L6.216 3.392L6.384 3.32L6.084 2.648C6.012 2.48 5.964 2.3 5.964 2.108V2.024ZM11.9229 1.856C13.4829 1.856 14.7549 3.128 14.7549 4.688H13.4229C13.4229 3.764 12.7509 3.02 11.9229 3.02C10.6869 3.02 9.67894 3.92 9.67894 5.024V8.012H8.35894V2.024H9.67894V2.108C9.67894 2.3 9.64294 2.48 9.57094 2.648L9.27094 3.32L9.42694 3.392L9.66694 2.864C9.79894 2.564 10.0509 2.312 10.3509 2.18C10.8309 1.976 11.3589 1.856 11.9229 1.856ZM17.5544 7.016H18.3944V8.18H17.5544C16.4624 8.18 15.5624 7.436 15.5624 6.512V3.02H15.2384V2.024H15.5624V0.0319996H16.8944V2.024H18.2264V3.02H17.2064C17.0864 3.02 16.9784 2.972 16.8944 2.9L16.6304 2.624L16.4984 2.756L16.7624 3.02C16.8464 3.104 16.8944 3.212 16.8944 3.332V6.512C16.8944 6.788 17.1944 7.016 17.5544 7.016ZM20.4714 8.012H19.1514V2.024H20.4714V8.012ZM20.4714 1.688H19.1514V0.368H20.4714V1.688ZM26.372 4.904C26.924 5.252 27.26 5.732 27.26 6.26C27.26 7.316 25.928 8.18 24.272 8.18C22.616 8.18 21.284 7.316 21.284 6.26C21.284 6.236 21.284 6.212 21.284 6.188H22.616C22.616 6.212 22.604 6.236 22.604 6.26C22.604 6.68 23.348 7.016 24.272 7.016C25.184 7.016 25.928 6.68 25.928 6.26C25.928 5.852 25.1 5.684 24.272 5.516C23.444 5.348 22.676 5.288 22.16 4.904C21.716 4.58 21.44 4.16 21.44 3.692C21.44 2.684 22.712 1.856 24.272 1.856C25.832 1.856 27.092 2.684 27.092 3.692H25.76C25.76 3.32 25.1 3.02 24.272 3.02C23.444 3.02 22.772 3.32 22.772 3.692C22.772 4.052 23.456 4.196 24.272 4.352C25.1 4.52 25.832 4.568 26.372 4.904ZM30.1924 7.016H31.0324V8.18H30.1924C29.1004 8.18 28.2004 7.436 28.2004 6.512V3.02H27.8764V2.024H28.2004V0.0319996H29.5324V2.024H30.8644V3.02H29.8444C29.7244 3.02 29.6164 2.972 29.5324 2.9L29.2684 2.624L29.1364 2.756L29.4004 3.02C29.4844 3.104 29.5324 3.212 29.5324 3.332V6.512C29.5324 6.788 29.8324 7.016 30.1924 7.016Z" fill="#9769E1"/>
</svg>
