<svg width="137" height="45" viewBox="0 0 137 45" fill="none" xmlns="http://www.w3.org/2000/svg">
<g filter="url(#filter0_d_1232_2265)">
<rect x="4" width="129" height="40" rx="20" fill="#EFE5FF"/>
<path d="M32.0166 8.74902C36.0107 8.74902 39.249 11.9872 39.249 15.9814C39.249 17.4684 38.7988 18.8497 38.0293 19.999C38.799 21.1485 39.249 22.5303 39.249 24.0176C39.2489 28.0117 36.0106 31.25 32.0166 31.25C30.5297 31.2499 29.1482 30.7998 27.999 30.0303C26.8498 30.7997 25.4683 31.25 23.9814 31.25C19.9876 31.2498 16.75 28.0117 16.75 24.0176C16.75 22.5305 17.1992 21.1484 17.9688 19.999C17.1995 18.8498 16.75 17.4683 16.75 15.9814C16.75 11.9874 19.9876 8.74927 23.9814 8.74902C25.4679 8.74902 26.85 9.1978 27.999 9.9668C29.1481 9.19756 30.53 8.74912 32.0166 8.74902Z" fill="url(#paint0_linear_1232_2265)"/>
<path d="M28 12.2854V12.2854C29.2141 15.9277 32.0723 18.7859 35.7146 20V20V20C32.0723 21.2141 29.2141 24.0723 28 27.7146V27.7146V27.7146C26.7859 24.0723 23.9277 21.2141 20.2854 20V20V20C23.9277 18.7859 26.7859 15.9277 28 12.2854V12.2854Z" fill="white"/>
<path d="M60.402 25.612H58.82L57.784 22.798H53.542L52.464 25.612H50.882L54.788 15.28H56.566L60.402 25.612ZM57.294 21.51L55.684 17.156L54.018 21.51H57.294ZM63.7606 15.28V25.612H62.2766V15.28H63.7606ZM77.3972 17.464V14.174H78.9372V23.26H77.3972V18.71H75.2272V17.464H77.3972ZM72.3572 22.49V25.15H79.2452V26.382H70.8032V22.49H72.3572ZM75.6752 15.07V16.302H73.1272V16.638C73.1272 17.4313 73.3792 18.1733 73.8832 18.864C74.3966 19.5453 75.1106 20.04 76.0252 20.348L75.2692 21.552C74.5972 21.3187 74.0139 20.978 73.5192 20.53C73.0339 20.082 72.6512 19.55 72.3712 18.934C72.1006 19.606 71.7039 20.194 71.1812 20.698C70.6679 21.202 70.0519 21.5753 69.3332 21.818L68.5492 20.6C69.5012 20.2733 70.2432 19.746 70.7752 19.018C71.3072 18.29 71.5732 17.4967 71.5732 16.638V16.302H68.9832V15.07H75.6752ZM85.4896 15.182V17.142C85.4896 17.9167 85.6156 18.668 85.8676 19.396C86.1196 20.124 86.4836 20.7727 86.9596 21.342C87.4449 21.902 88.0142 22.3267 88.6676 22.616L87.7716 23.862C87.0622 23.5353 86.4509 23.0593 85.9376 22.434C85.4242 21.7993 85.0229 21.0667 84.7336 20.236C84.4442 21.132 84.0336 21.9207 83.5016 22.602C82.9789 23.274 82.3489 23.7827 81.6116 24.128L80.6876 22.854C81.3502 22.5553 81.9242 22.112 82.4096 21.524C82.9042 20.936 83.2822 20.264 83.5436 19.508C83.8049 18.7427 83.9356 17.954 83.9356 17.142V15.182H85.4896ZM91.0896 14.146V26.648H89.5496V14.146H91.0896ZM107.56 21.65V22.91H102.688V26.648H101.134V22.91H96.2905V21.65H107.56ZM101.134 15.63V14.188H102.688V15.63H106.51V16.862H102.702C102.758 17.282 102.964 17.6927 103.318 18.094C103.682 18.486 104.172 18.8267 104.788 19.116C105.404 19.396 106.109 19.5873 106.902 19.69L106.356 20.894C105.348 20.7727 104.457 20.502 103.682 20.082C102.917 19.662 102.329 19.144 101.918 18.528C101.517 19.144 100.929 19.662 100.154 20.082C99.3798 20.4927 98.4791 20.7633 97.4525 20.894L96.9205 19.69C97.7138 19.5873 98.4185 19.396 99.0345 19.116C99.6598 18.8267 100.15 18.486 100.504 18.094C100.859 17.702 101.064 17.2913 101.12 16.862H97.3265V15.63H101.134ZM111.439 15.714V14.258H112.965V15.714H115.541V16.918H112.965V17.1C112.965 17.8747 113.221 18.5887 113.735 19.242C114.257 19.886 114.995 20.3527 115.947 20.642L115.205 21.846C114.514 21.6313 113.912 21.314 113.399 20.894C112.895 20.4647 112.503 19.9607 112.223 19.382C111.943 20.0073 111.551 20.5533 111.047 21.02C110.543 21.4773 109.936 21.8273 109.227 22.07L108.471 20.852C109.423 20.544 110.155 20.0493 110.669 19.368C111.182 18.6867 111.439 17.9307 111.439 17.1V16.918H108.863V15.714H111.439ZM117.333 17.87V14.174H118.873V23.428H117.333V19.13H115.121V17.87H117.333ZM112.293 22.63V25.15H119.181V26.382H110.739V22.63H112.293Z" fill="#7E37F9"/>
</g>
<defs>
<filter id="filter0_d_1232_2265" x="0" y="0" width="137" height="48" filterUnits="userSpaceOnUse" color-interpolation-filters="sRGB">
<feFlood flood-opacity="0" result="BackgroundImageFix"/>
<feColorMatrix in="SourceAlpha" type="matrix" values="0 0 0 0 0 0 0 0 0 0 0 0 0 0 0 0 0 0 127 0" result="hardAlpha"/>
<feOffset dy="4"/>
<feGaussianBlur stdDeviation="2"/>
<feComposite in2="hardAlpha" operator="out"/>
<feColorMatrix type="matrix" values="0 0 0 0 0 0 0 0 0 0 0 0 0 0 0 0 0 0 0.25 0"/>
<feBlend mode="normal" in2="BackgroundImageFix" result="effect1_dropShadow_1232_2265"/>
<feBlend mode="normal" in="SourceGraphic" in2="effect1_dropShadow_1232_2265" result="shape"/>
</filter>
<linearGradient id="paint0_linear_1232_2265" x1="16.9107" y1="9.07047" x2="39.251" y2="31.2481" gradientUnits="userSpaceOnUse">
<stop offset="0.0817308" stop-color="#7E37F9"/>
<stop offset="0.5" stop-color="#DECBFF"/>
<stop offset="0.947115" stop-color="#4BB4FE"/>
</linearGradient>
</defs>
</svg>
