<svg width="20" height="20" viewBox="0 0 20 20" fill="none" xmlns="http://www.w3.org/2000/svg">
<path d="M3 7.82353C3 6.49224 3 5.82729 3.4102 5.41365C3.8204 5 4.4798 5 5.8 5H14.2C15.5202 5 16.1796 5 16.5898 5.41365C17 5.82729 17 6.49224 17 7.82353C17 8.156 17 8.32259 16.8978 8.42635C16.7949 8.52941 16.629 8.52941 16.3 8.52941H3.7C3.3703 8.52941 3.2051 8.52941 3.1022 8.42635C3 8.32259 3 8.15529 3 7.82353ZM3 14.1765C3 15.5078 3 16.1727 3.4102 16.5864C3.8204 17 4.4798 17 5.8 17H14.2C15.5202 17 16.1796 17 16.5898 16.5864C17 16.1727 17 15.5078 17 14.1765V10.6471C17 10.3146 17 10.148 16.8978 10.0442C16.7949 9.94118 16.629 9.94118 16.3 9.94118H3.7C3.3703 9.94118 3.2051 9.94118 3.1022 10.0442C3 10.148 3 10.3153 3 10.6471V14.1765Z" fill="#EFE5FF"/>
<path d="M5.83398 3.5V6M14.1673 3.5V6" stroke="#EFE5FF" stroke-width="2" stroke-linecap="round"/>
</svg>
