<svg width="40" height="40" viewBox="0 0 40 40" fill="none" xmlns="http://www.w3.org/2000/svg">
<path d="M20.0003 6.6665C12.6353 6.6665 6.66699 12.6365 6.66699 19.9998C6.66699 27.3632 12.6353 33.3332 20.0003 33.3332C27.3653 33.3332 33.3337 27.3632 33.3337 19.9998C33.3337 12.6365 27.3653 6.6665 20.0003 6.6665ZM26.1787 23.8215C26.4912 24.134 26.6667 24.5579 26.6667 24.9998C26.6667 25.4418 26.4912 25.8657 26.1787 26.1782C25.8661 26.4907 25.4423 26.6663 25.0003 26.6663C24.5584 26.6663 24.1345 26.4907 23.822 26.1782L20.0003 22.3565L16.1787 26.1782C16.0242 26.3335 15.8406 26.4567 15.6384 26.5408C15.4362 26.6249 15.2193 26.6682 15.0003 26.6682C14.7813 26.6682 14.5645 26.6249 14.3622 26.5408C14.16 26.4567 13.9764 26.3335 13.822 26.1782C13.5095 25.8656 13.334 25.4418 13.334 24.9998C13.334 24.5579 13.5095 24.1341 13.822 23.8215L17.6437 19.9998L13.822 16.1782C13.5095 15.8657 13.3339 15.4418 13.3339 14.9998C13.3339 14.5579 13.5095 14.134 13.822 13.8215C14.1345 13.509 14.5584 13.3334 15.0003 13.3334C15.4423 13.3334 15.8661 13.509 16.1787 13.8215L20.0003 17.6432L23.822 13.8215C24.1345 13.509 24.5584 13.3334 25.0003 13.3334C25.4423 13.3334 25.8661 13.509 26.1787 13.8215C26.4912 14.134 26.6667 14.5579 26.6667 14.9998C26.6667 15.4418 26.4912 15.8657 26.1787 16.1782L22.357 19.9998L26.1787 23.8215Z" fill="#8D8D8D"/>
</svg>
