<svg width="62" height="15" viewBox="0 0 62 15" fill="none" xmlns="http://www.w3.org/2000/svg">
<path d="M9.6 8.76H15.14V14.02H12.94V13.48C12.94 13.14 13.02 12.8 13.16 12.5L13.34 12.14L13.08 12L12.92 12.32C12.72 12.7 12.42 13.04 12.02 13.26C10.84 13.92 9.44 14.3 7.94 14.3C3.66 14.3 0.2 11.2 0.2 7.36C0.2 3.54 3.66 0.439999 7.94 0.439999C10.62 0.439999 12.98 1.64 14.38 3.48H11.42C10.48 2.8 9.26 2.38 7.94 2.38C4.88 2.38 2.4 4.62 2.4 7.36C2.4 10.12 4.88 12.36 7.94 12.36C9.58 12.36 11.06 11.72 12.08 10.7H9.6V8.76ZM19.3892 12.08H26.8692V14.02H17.1892V0.719999H19.3892V12.08ZM34.9986 0.439999C39.2986 0.439999 42.7586 3.54 42.7586 7.36C42.7586 11.2 39.2986 14.3 34.9986 14.3C30.7186 14.3 27.2586 11.2 27.2586 7.36C27.2586 3.54 30.7186 0.439999 34.9986 0.439999ZM34.9986 12.36C38.0586 12.36 40.5386 10.12 40.5386 7.36C40.5386 4.62 38.0586 2.38 34.9986 2.38C31.9386 2.38 29.4586 4.62 29.4586 7.36C29.4586 10.12 31.9386 12.36 34.9986 12.36ZM59.8516 0.719999H61.8716L57.8116 14.02H55.0716L52.8116 6.62C52.7316 6.42 52.7116 6.2 52.7116 5.98V5.42H52.4116V5.98C52.4116 6.2 52.3716 6.42 52.3116 6.62L50.0516 14.02H47.3116L43.2516 0.719999H45.2716L48.4316 11.08C48.5116 11.28 48.5316 11.5 48.5316 11.72V12.62H48.8316V11.72C48.8316 11.5 48.8716 11.28 48.9316 11.08L51.5116 2.66H53.6116L56.1916 11.08C56.2516 11.28 56.2916 11.5 56.2916 11.72V12.62H56.5916V11.72C56.5916 11.5 56.6116 11.28 56.6916 11.08L59.8516 0.719999Z" fill="#6D6EEE"/>
</svg>
