<svg width="24" height="24" viewBox="0 0 24 24" fill="none" xmlns="http://www.w3.org/2000/svg">
<path d="M16.0176 0.749023C20.0114 0.749261 23.249 3.98737 23.249 7.98145C23.249 9.46847 22.7988 10.8497 22.0293 11.999C22.7991 13.1485 23.249 14.5303 23.249 16.0176C23.249 20.0117 20.0114 23.2498 16.0176 23.25C14.5305 23.25 13.1484 22.7999 11.999 22.0303C10.8498 22.7997 9.46828 23.25 7.98145 23.25C3.98759 23.2498 0.75 20.0117 0.75 16.0176C0.750016 14.5305 1.19916 13.1484 1.96875 11.999C1.19947 10.8498 0.75 9.46825 0.75 7.98145C0.750044 3.9874 3.98761 0.749273 7.98145 0.749023C9.46806 0.749023 10.8499 1.19859 11.999 1.96777C13.1483 1.19829 14.5307 0.749023 16.0176 0.749023Z" fill="url(#paint0_linear_308_1809)"/>
<path d="M12 4.2854C13.2141 7.92774 16.0723 10.7859 19.7146 12C16.0723 13.2141 13.2141 16.0723 12 19.7146C10.7859 16.0723 7.92774 13.2141 4.2854 12C7.92774 10.7859 10.7859 7.92774 12 4.2854Z" fill="white"/>
<defs>
<linearGradient id="paint0_linear_308_1809" x1="0.910708" y1="1.07047" x2="23.251" y2="23.2481" gradientUnits="userSpaceOnUse">
<stop offset="0.0817308" stop-color="#7E37F9"/>
<stop offset="0.5" stop-color="#DECBFF"/>
<stop offset="0.947115" stop-color="#4BB4FE"/>
</linearGradient>
</defs>
</svg>
