<svg width="23" height="24" viewBox="0 0 23 24" fill="none" xmlns="http://www.w3.org/2000/svg">
<path d="M4.75019 9V21H0.950195V9H4.75019ZM8.55019 21C8.04628 21 7.56301 20.7893 7.20669 20.4142C6.85037 20.0391 6.65019 19.5304 6.65019 19V9C6.65019 8.45 6.85919 7.95 7.21069 7.59L13.4617 1L14.4687 2.06C14.7252 2.33 14.8867 2.7 14.8867 3.11L14.8582 3.43L13.9557 8H19.9502C20.4541 8 20.9374 8.21071 21.2937 8.58579C21.65 8.96086 21.8502 9.46957 21.8502 10V12C21.8502 12.26 21.8027 12.5 21.7172 12.73L18.8482 19.78C18.5632 20.5 17.8887 21 17.1002 21H8.55019ZM8.55019 19H17.1287L19.9502 12V10H11.5997L12.6732 4.68L8.55019 9.03V19Z" fill="#8D8D8D"/>
</svg>
