<svg width="80" height="80" viewBox="0 0 80 80" fill="none" xmlns="http://www.w3.org/2000/svg">
<circle cx="40" cy="40" r="38.5156" fill="#F0F0FF" stroke="#AEB3BB" stroke-width="1.03125"/>
<path d="M39.8955 20.4224C50.7068 20.4224 59.4715 29.1873 59.4717 39.9985C59.4717 47.1582 55.627 53.4192 49.8906 56.8325C55.8779 59.1562 60.8542 63.5065 63.9785 69.0405C57.5199 74.6224 49.1028 77.9995 39.8965 77.9995C30.6894 77.9995 22.2713 74.6222 15.8125 69.0396C18.9366 63.5059 23.9127 59.1562 29.8994 56.8325C24.1636 53.4191 20.3193 47.1578 20.3193 39.9985C20.3196 29.1874 29.0844 20.4225 39.8955 20.4224Z" fill="white"/>
<rect x="43.8379" y="36.5454" width="1.91919" height="3.83838" rx="0.833333" fill="#D9D9D9"/>
<rect x="34.2412" y="36.5454" width="1.91919" height="3.83838" rx="0.833333" fill="#D9D9D9"/>
<path d="M45.7581 46.0557C44.8135 48.0228 42.8027 49.3808 40.4747 49.3808C38.1468 49.3808 36.136 48.0228 35.1914 46.0557" stroke="#D9D9D9" stroke-width="0.593458" stroke-linecap="round"/>
</svg>
