<svg width="282" height="64" viewBox="0 0 282 64" fill="none" xmlns="http://www.w3.org/2000/svg">
<rect y="13" width="282" height="51" rx="10" fill="#EFE5FF"/>
<path d="M24.196 28.372V25.888H25.096V33.748H24.196V29.128H21.868V28.372H24.196ZM20.02 26.5V27.844C20.02 28.58 20.26 29.264 20.74 29.896C21.22 30.528 21.836 30.988 22.588 31.276L22.108 31.972C21.532 31.748 21.024 31.416 20.584 30.976C20.152 30.528 19.824 30.016 19.6 29.44C19.376 30.072 19.032 30.632 18.568 31.12C18.112 31.6 17.576 31.968 16.96 32.224L16.492 31.504C17.004 31.312 17.46 31.028 17.86 30.652C18.26 30.276 18.572 29.844 18.796 29.356C19.02 28.86 19.132 28.348 19.132 27.82V26.5H20.02ZM19.264 32.86V35.392H25.348V36.136H18.364V32.86H19.264ZM31.2643 27.424V26.044H32.1643V27.424H35.9563V28.168H27.4483V27.424H31.2643ZM31.2643 34.372V32.872C30.3363 32.824 29.6083 32.628 29.0803 32.284C28.5523 31.932 28.2883 31.464 28.2883 30.88C28.2883 30.256 28.5923 29.772 29.2003 29.428C29.8083 29.076 30.6443 28.9 31.7083 28.9C32.7723 28.9 33.6083 29.076 34.2163 29.428C34.8243 29.772 35.1283 30.256 35.1283 30.88C35.1283 31.464 34.8643 31.932 34.3363 32.284C33.8163 32.628 33.0923 32.824 32.1643 32.872V34.372H36.4843V35.116H26.9683V34.372H31.2643ZM31.7083 29.608C30.9243 29.608 30.3083 29.724 29.8603 29.956C29.4123 30.18 29.1883 30.488 29.1883 30.88C29.1883 31.28 29.4123 31.596 29.8603 31.828C30.3083 32.052 30.9243 32.164 31.7083 32.164C32.4843 32.164 33.0963 32.052 33.5443 31.828C33.9923 31.596 34.2163 31.28 34.2163 30.88C34.2163 30.488 33.9923 30.18 33.5443 29.956C33.0963 29.724 32.4843 29.608 31.7083 29.608ZM45.5206 25.876V30.22H47.2606V30.976H45.5206V36.376H44.6206V25.876H45.5206ZM40.0846 27.568V25.996H40.9966V27.568H43.6126V28.312H37.3966V27.568H40.0846ZM40.5526 29.212C41.0406 29.212 41.4766 29.316 41.8606 29.524C42.2446 29.724 42.5446 30.008 42.7606 30.376C42.9846 30.736 43.0966 31.148 43.0966 31.612C43.0966 32.076 42.9846 32.492 42.7606 32.86C42.5446 33.22 42.2446 33.504 41.8606 33.712C41.4766 33.912 41.0406 34.012 40.5526 34.012C40.0726 34.012 39.6366 33.912 39.2446 33.712C38.8606 33.504 38.5566 33.22 38.3326 32.86C38.1166 32.492 38.0086 32.076 38.0086 31.612C38.0086 31.148 38.1166 30.736 38.3326 30.376C38.5566 30.008 38.8606 29.724 39.2446 29.524C39.6366 29.316 40.0726 29.212 40.5526 29.212ZM40.5526 29.956C40.0646 29.956 39.6606 30.112 39.3406 30.424C39.0286 30.736 38.8726 31.132 38.8726 31.612C38.8726 32.092 39.0286 32.488 39.3406 32.8C39.6606 33.104 40.0646 33.256 40.5526 33.256C41.0406 33.256 41.4406 33.104 41.7526 32.8C42.0726 32.488 42.2326 32.092 42.2326 31.612C42.2326 31.132 42.0726 30.736 41.7526 30.424C41.4406 30.112 41.0406 29.956 40.5526 29.956ZM51.6168 26.8V28.708C51.6168 29.332 51.7448 29.952 52.0008 30.568C52.2568 31.176 52.6008 31.72 53.0328 32.2C53.4648 32.68 53.9328 33.036 54.4368 33.268L53.8968 33.988C53.2968 33.692 52.7568 33.248 52.2768 32.656C51.7968 32.056 51.4328 31.38 51.1848 30.628C50.9448 31.428 50.5808 32.144 50.0928 32.776C49.6048 33.408 49.0528 33.876 48.4368 34.18L47.8848 33.436C48.3888 33.196 48.8568 32.828 49.2888 32.332C49.7288 31.836 50.0768 31.272 50.3328 30.64C50.5888 30 50.7168 29.356 50.7168 28.708V26.8H51.6168ZM56.5008 25.864V36.388H55.6008V25.864H56.5008ZM60.6171 26.26V29.068H66.8451V29.8H59.7291V26.26H60.6171ZM67.9491 31.24V31.984H58.4331V31.24H67.9491ZM60.5571 33.052V35.38H66.9051V36.124H59.6691V33.052H60.5571ZM77.555 26.62V27.364H75.203V27.82C75.203 28.524 75.439 29.172 75.911 29.764C76.383 30.348 77.003 30.772 77.771 31.036L77.303 31.756C76.719 31.548 76.207 31.236 75.767 30.82C75.327 30.404 74.995 29.92 74.771 29.368C74.547 29.968 74.207 30.492 73.751 30.94C73.295 31.388 72.759 31.728 72.143 31.96L71.651 31.252C72.443 30.972 73.083 30.52 73.571 29.896C74.067 29.272 74.315 28.584 74.315 27.832V27.364H71.939V26.62H77.555ZM79.823 25.876V28.672H81.395V29.428H79.823V32.188H78.923V25.876H79.823ZM79.823 32.776V36.376H78.923V33.508H73.031V32.776H79.823ZM91.6553 30.964V31.696H87.3593V32.968H90.4913V36.232H83.3513V32.968H86.4713V31.696H82.1753V30.964H91.6553ZM90.7433 26.224V26.956H89.1353V29.224H90.7073V29.956H83.0993V29.224H84.6713V26.956H83.0633V26.224H90.7433ZM84.2273 33.688V35.5H89.6153V33.688H84.2273ZM88.2473 29.224V26.956H85.5833V29.224H88.2473ZM96.0596 26.644C96.5956 26.644 97.0756 26.748 97.4996 26.956C97.9236 27.164 98.2556 27.456 98.4956 27.832C98.7356 28.2 98.8556 28.624 98.8556 29.104C98.8556 29.584 98.7356 30.012 98.4956 30.388C98.2556 30.756 97.9236 31.044 97.4996 31.252C97.0756 31.46 96.5956 31.564 96.0596 31.564C95.5156 31.564 95.0316 31.46 94.6076 31.252C94.1836 31.044 93.8516 30.756 93.6116 30.388C93.3716 30.012 93.2516 29.584 93.2516 29.104C93.2516 28.624 93.3716 28.2 93.6116 27.832C93.8516 27.456 94.1836 27.164 94.6076 26.956C95.0316 26.748 95.5156 26.644 96.0596 26.644ZM96.0596 27.424C95.4996 27.424 95.0356 27.58 94.6676 27.892C94.3076 28.204 94.1276 28.608 94.1276 29.104C94.1276 29.592 94.3076 29.996 94.6676 30.316C95.0356 30.628 95.4996 30.784 96.0596 30.784C96.6116 30.784 97.0676 30.628 97.4276 30.316C97.7956 29.996 97.9796 29.592 97.9796 29.104C97.9796 28.608 97.7996 28.204 97.4396 27.892C97.0796 27.58 96.6196 27.424 96.0596 27.424ZM101.184 25.864V36.388H100.284V25.864H101.184ZM92.7116 33.304C94.1196 33.304 95.3636 33.284 96.4436 33.244C97.5316 33.204 98.5796 33.104 99.5876 32.944L99.6596 33.604C98.6196 33.804 97.5556 33.932 96.4676 33.988C95.3796 34.044 94.1676 34.072 92.8316 34.072L92.7116 33.304ZM111.102 26.596V27.412C111.102 27.996 111.294 28.556 111.678 29.092C112.062 29.62 112.55 30.072 113.142 30.448C113.742 30.816 114.346 31.056 114.954 31.168L114.534 31.912C113.718 31.72 112.942 31.352 112.206 30.808C111.478 30.264 110.954 29.62 110.634 28.876C110.314 29.62 109.786 30.264 109.05 30.808C108.322 31.352 107.55 31.72 106.734 31.912L106.338 31.168C106.938 31.048 107.534 30.804 108.126 30.436C108.726 30.068 109.214 29.616 109.59 29.08C109.974 28.544 110.166 27.988 110.166 27.412V26.596H111.102ZM115.434 34.192V34.936H105.918V34.192H115.434ZM121.758 26.836V27.592H117.774V29.788H121.518V30.508H117.774V33.076C118.814 33.076 119.686 33.056 120.39 33.016C121.102 32.968 121.826 32.88 122.562 32.752L122.658 33.484C121.89 33.62 121.134 33.712 120.39 33.76C119.654 33.808 118.754 33.832 117.69 33.832H116.886V26.836H121.758ZM124.47 25.876V30.124H126.21V30.88H124.47V36.376H123.57V25.876H124.47ZM129.834 26.272C130.346 26.272 130.806 26.372 131.214 26.572C131.63 26.764 131.954 27.036 132.186 27.388C132.426 27.74 132.546 28.14 132.546 28.588C132.546 29.036 132.43 29.436 132.198 29.788C131.966 30.132 131.642 30.404 131.226 30.604C130.81 30.796 130.346 30.892 129.834 30.892C129.322 30.892 128.858 30.796 128.442 30.604C128.034 30.404 127.714 30.132 127.482 29.788C127.25 29.436 127.134 29.036 127.134 28.588C127.134 28.14 127.25 27.74 127.482 27.388C127.714 27.036 128.034 26.764 128.442 26.572C128.858 26.372 129.322 26.272 129.834 26.272ZM129.834 27.004C129.306 27.004 128.87 27.156 128.526 27.46C128.182 27.756 128.01 28.132 128.01 28.588C128.01 29.044 128.182 29.42 128.526 29.716C128.87 30.012 129.306 30.16 129.834 30.16C130.362 30.16 130.798 30.012 131.142 29.716C131.494 29.42 131.67 29.044 131.67 28.588C131.67 28.124 131.494 27.744 131.142 27.448C130.798 27.152 130.362 27.004 129.834 27.004ZM135.486 25.876V31.264H134.574V25.876H135.486ZM135.486 31.792V34.3H129.618V35.512H135.846V36.232H128.754V33.628H134.586V32.512H128.718V31.792H135.486ZM142.122 26.068C143.282 26.068 144.186 26.224 144.834 26.536C145.482 26.848 145.806 27.296 145.806 27.88C145.806 28.464 145.482 28.916 144.834 29.236C144.186 29.548 143.282 29.704 142.122 29.704C140.962 29.704 140.058 29.548 139.41 29.236C138.762 28.916 138.438 28.464 138.438 27.88C138.438 27.296 138.762 26.848 139.41 26.536C140.058 26.224 140.962 26.068 142.122 26.068ZM142.122 26.74C141.258 26.74 140.582 26.84 140.094 27.04C139.606 27.24 139.362 27.52 139.362 27.88C139.362 28.24 139.602 28.52 140.082 28.72C140.57 28.92 141.25 29.02 142.122 29.02C142.994 29.02 143.67 28.92 144.15 28.72C144.638 28.52 144.882 28.24 144.882 27.88C144.882 27.52 144.638 27.24 144.15 27.04C143.662 26.84 142.986 26.74 142.122 26.74ZM146.862 30.436V31.168H137.382V30.436H146.862ZM145.638 32.092V34.42H139.446V35.548H145.962V36.256H138.57V33.76H144.762V32.788H138.534V32.092H145.638ZM153.492 26.368C154.196 26.368 154.792 26.552 155.28 26.92C155.768 27.288 156.06 27.78 156.156 28.396H158.352V25.876H159.252V31.504H158.352V29.14H156.156C156.068 29.756 155.78 30.256 155.292 30.64C154.804 31.024 154.204 31.216 153.492 31.216C152.972 31.216 152.508 31.116 152.1 30.916C151.692 30.708 151.372 30.42 151.14 30.052C150.908 29.684 150.792 29.264 150.792 28.792C150.792 28.32 150.908 27.9 151.14 27.532C151.372 27.164 151.692 26.88 152.1 26.68C152.508 26.472 152.972 26.368 153.492 26.368ZM153.492 27.124C152.948 27.124 152.504 27.28 152.16 27.592C151.824 27.904 151.656 28.304 151.656 28.792C151.656 29.28 151.828 29.68 152.172 29.992C152.516 30.296 152.956 30.448 153.492 30.448C154.028 30.448 154.464 30.296 154.8 29.992C155.144 29.68 155.316 29.28 155.316 28.792C155.316 28.304 155.144 27.904 154.8 27.592C154.464 27.28 154.028 27.124 153.492 27.124ZM153.456 32.044V33.388H158.352V32.044H159.252V36.232H152.556V32.044H153.456ZM153.456 35.5H158.352V34.108H153.456V35.5ZM165.421 34.312V32.296H162.325V29.08H168.565V27.388H162.301V26.656H169.453V29.8H163.213V31.564H169.693V32.296H166.309V34.312H170.641V35.056H161.125V34.312H165.421ZM179.905 26.848V27.592H173.725V30.928H180.025V31.66H172.837V26.848H179.905ZM181.129 34.18V34.924H171.613V34.18H181.129ZM192.931 25.876V30.22H194.671V30.976H192.931V36.376H192.031V25.876H192.931ZM187.495 27.568V25.996H188.407V27.568H191.023V28.312H184.807V27.568H187.495ZM187.963 29.212C188.451 29.212 188.887 29.316 189.271 29.524C189.655 29.724 189.955 30.008 190.171 30.376C190.395 30.736 190.507 31.148 190.507 31.612C190.507 32.076 190.395 32.492 190.171 32.86C189.955 33.22 189.655 33.504 189.271 33.712C188.887 33.912 188.451 34.012 187.963 34.012C187.483 34.012 187.047 33.912 186.655 33.712C186.271 33.504 185.967 33.22 185.743 32.86C185.527 32.492 185.419 32.076 185.419 31.612C185.419 31.148 185.527 30.736 185.743 30.376C185.967 30.008 186.271 29.724 186.655 29.524C187.047 29.316 187.483 29.212 187.963 29.212ZM187.963 29.956C187.475 29.956 187.071 30.112 186.751 30.424C186.439 30.736 186.283 31.132 186.283 31.612C186.283 32.092 186.439 32.488 186.751 32.8C187.071 33.104 187.475 33.256 187.963 33.256C188.451 33.256 188.851 33.104 189.163 32.8C189.483 32.488 189.643 32.092 189.643 31.612C189.643 31.132 189.483 30.736 189.163 30.424C188.851 30.112 188.451 29.956 187.963 29.956ZM199.027 26.8V28.708C199.027 29.332 199.155 29.952 199.411 30.568C199.667 31.176 200.011 31.72 200.443 32.2C200.875 32.68 201.343 33.036 201.847 33.268L201.307 33.988C200.707 33.692 200.167 33.248 199.687 32.656C199.207 32.056 198.843 31.38 198.595 30.628C198.355 31.428 197.991 32.144 197.503 32.776C197.015 33.408 196.463 33.876 195.847 34.18L195.295 33.436C195.799 33.196 196.267 32.828 196.699 32.332C197.139 31.836 197.487 31.272 197.743 30.64C197.999 30 198.127 29.356 198.127 28.708V26.8H199.027ZM203.911 25.864V36.388H203.011V25.864H203.911ZM211.099 26.788V27.748H213.559V25.888H214.459V33.544H213.559V30.736H211.099V31.684H206.335V26.788H211.099ZM207.211 27.52V30.952H210.223V27.52H207.211ZM208.639 32.86V35.392H214.711V36.136H207.739V32.86H208.639ZM213.559 29.992V28.492H211.099V29.992H213.559ZM224.401 26.884V27.628H220.513V33.028C221.553 33.028 222.409 33.008 223.081 32.968C223.761 32.92 224.441 32.828 225.121 32.692L225.229 33.424C224.501 33.568 223.785 33.664 223.081 33.712C222.377 33.76 221.489 33.784 220.417 33.784H219.625V26.884H224.401ZM227.725 25.876V36.388H226.825V30.448H223.777V29.704H226.825V25.876H227.725ZM240.067 28.624V25.876H240.967V32.128H240.067V29.368H237.931V28.624H240.067ZM237.523 32.464C238.603 32.464 239.451 32.64 240.067 32.992C240.691 33.336 241.003 33.812 241.003 34.42C241.003 35.036 240.695 35.512 240.079 35.848C239.463 36.192 238.611 36.364 237.523 36.364C236.435 36.364 235.579 36.192 234.955 35.848C234.339 35.512 234.031 35.036 234.031 34.42C234.031 33.812 234.339 33.336 234.955 32.992C235.579 32.64 236.435 32.464 237.523 32.464ZM237.523 33.172C236.715 33.172 236.079 33.284 235.615 33.508C235.159 33.724 234.931 34.028 234.931 34.42C234.931 34.804 235.159 35.108 235.615 35.332C236.079 35.548 236.715 35.656 237.523 35.656C238.323 35.656 238.955 35.548 239.419 35.332C239.883 35.108 240.115 34.804 240.115 34.42C240.115 34.028 239.883 33.724 239.419 33.508C238.955 33.284 238.323 33.172 237.523 33.172ZM238.279 26.656V27.4H235.951V27.808C235.951 28.256 236.059 28.696 236.275 29.128C236.491 29.552 236.795 29.928 237.187 30.256C237.579 30.584 238.023 30.836 238.519 31.012L238.051 31.732C237.467 31.516 236.955 31.2 236.515 30.784C236.075 30.36 235.743 29.872 235.519 29.32C235.295 29.944 234.951 30.492 234.487 30.964C234.023 31.436 233.479 31.792 232.855 32.032L232.399 31.312C232.911 31.128 233.367 30.856 233.767 30.496C234.167 30.136 234.479 29.724 234.703 29.26C234.935 28.788 235.051 28.304 235.051 27.808V27.4H232.675V26.656H238.279ZM250.951 25.888V29.08H252.523V29.824H250.951V32.908H250.051V25.888H250.951ZM242.791 31.864C244.007 31.864 244.955 31.852 245.635 31.828V31.036C245.019 30.988 244.531 30.828 244.171 30.556C243.819 30.284 243.643 29.932 243.643 29.5C243.643 29.02 243.863 28.644 244.303 28.372C244.743 28.092 245.331 27.952 246.067 27.952C246.811 27.952 247.403 28.092 247.843 28.372C248.283 28.644 248.503 29.02 248.503 29.5C248.503 29.932 248.323 30.284 247.963 30.556C247.611 30.82 247.131 30.98 246.523 31.036V31.792C247.579 31.744 248.543 31.656 249.415 31.528L249.487 32.176C248.495 32.352 247.471 32.468 246.415 32.524C245.367 32.572 244.199 32.596 242.911 32.596L242.791 31.864ZM250.951 33.448V36.376H250.051V34.168H244.075V33.448H250.951ZM245.635 26.848V25.792H246.523V26.848H249.091V27.532H243.055V26.848H245.635ZM246.067 28.576C245.587 28.576 245.203 28.66 244.915 28.828C244.635 28.996 244.495 29.22 244.495 29.5C244.495 29.78 244.635 30.008 244.915 30.184C245.203 30.352 245.587 30.436 246.067 30.436C246.547 30.436 246.931 30.352 247.219 30.184C247.507 30.008 247.651 29.78 247.651 29.5C247.651 29.22 247.507 28.996 247.219 28.828C246.939 28.66 246.555 28.576 246.067 28.576ZM261.464 25.888V29.356H263.036V30.112H261.464V33.76H260.564V25.888H261.464ZM256.016 27.172V25.888H256.916V27.172H259.568V27.904H253.364V27.172H256.016ZM256.46 28.504C257.212 28.504 257.816 28.684 258.272 29.044C258.736 29.396 258.968 29.868 258.968 30.46C258.968 31.044 258.736 31.516 258.272 31.876C257.808 32.228 257.204 32.404 256.46 32.404C255.716 32.404 255.112 32.228 254.648 31.876C254.192 31.516 253.964 31.044 253.964 30.46C253.964 29.868 254.192 29.396 254.648 29.044C255.112 28.684 255.716 28.504 256.46 28.504ZM256.46 29.212C255.964 29.212 255.564 29.328 255.26 29.56C254.964 29.784 254.816 30.084 254.816 30.46C254.816 30.828 254.964 31.128 255.26 31.36C255.564 31.584 255.964 31.696 256.46 31.696C256.956 31.696 257.352 31.584 257.648 31.36C257.952 31.128 258.104 30.828 258.104 30.46C258.104 30.084 257.952 29.784 257.648 29.56C257.352 29.328 256.956 29.212 256.46 29.212ZM255.848 33.124V35.392H261.956V36.136H254.96V33.124H255.848ZM25.972 47.224V47.98H21.676V51.388H20.776V47.98H16.48V47.224H25.972ZM20.776 42.184V40.876H21.676V42.184H25.048V42.916H21.676V42.94C21.676 43.364 21.848 43.772 22.192 44.164C22.544 44.556 23.004 44.888 23.572 45.16C24.14 45.424 24.732 45.6 25.348 45.688L25.024 46.408C24.2 46.288 23.44 46.032 22.744 45.64C22.056 45.24 21.552 44.756 21.232 44.188C20.904 44.748 20.392 45.228 19.696 45.628C19 46.02 18.24 46.28 17.416 46.408L17.092 45.688C17.708 45.6 18.3 45.424 18.868 45.16C19.436 44.888 19.896 44.56 20.248 44.176C20.6 43.784 20.776 43.372 20.776 42.94V42.916H17.404V42.184H20.776ZM29.6203 42.304V40.948H30.5083V42.304H32.8603V43.024H30.5083V43.372C30.5083 44.068 30.7523 44.704 31.2403 45.28C31.7363 45.856 32.3723 46.268 33.1483 46.516L32.7043 47.224C32.1043 47.024 31.5723 46.724 31.1083 46.324C30.6523 45.916 30.3083 45.44 30.0763 44.896C29.8523 45.48 29.5123 45.992 29.0563 46.432C28.6003 46.864 28.0643 47.192 27.4483 47.416L26.9923 46.708C27.7763 46.444 28.4083 46.008 28.8883 45.4C29.3763 44.792 29.6203 44.116 29.6203 43.372V43.024H27.2563V42.304H29.6203ZM34.6843 44.116V40.888H35.5843V48.724H34.6843V44.872H32.4883V44.116H34.6843ZM29.8003 48.016V50.392H35.8843V51.136H28.9003V48.016H29.8003ZM46.0246 40.864V51.388H45.1246V40.864H46.0246ZM40.5046 41.692C41.0166 41.692 41.4726 41.844 41.8726 42.148C42.2806 42.444 42.5966 42.868 42.8206 43.42C43.0446 43.972 43.1566 44.612 43.1566 45.34C43.1566 46.068 43.0446 46.712 42.8206 47.272C42.5966 47.824 42.2806 48.252 41.8726 48.556C41.4726 48.852 41.0166 49 40.5046 49C39.9846 49 39.5206 48.852 39.1126 48.556C38.7126 48.252 38.4006 47.824 38.1766 47.272C37.9526 46.72 37.8406 46.076 37.8406 45.34C37.8406 44.612 37.9526 43.972 38.1766 43.42C38.4006 42.868 38.7126 42.444 39.1126 42.148C39.5206 41.844 39.9846 41.692 40.5046 41.692ZM40.5046 42.496C40.1526 42.496 39.8406 42.616 39.5686 42.856C39.3046 43.088 39.0966 43.42 38.9446 43.852C38.7926 44.276 38.7166 44.772 38.7166 45.34C38.7166 45.908 38.7926 46.408 38.9446 46.84C39.0966 47.272 39.3046 47.608 39.5686 47.848C39.8406 48.08 40.1526 48.196 40.5046 48.196C40.8486 48.196 41.1566 48.08 41.4286 47.848C41.7006 47.608 41.9126 47.272 42.0646 46.84C42.2166 46.4 42.2926 45.9 42.2926 45.34C42.2926 44.78 42.2166 44.284 42.0646 43.852C41.9126 43.42 41.7006 43.088 41.4286 42.856C41.1566 42.616 40.8486 42.496 40.5046 42.496ZM58.7745 40.864V45.16H60.4665V45.916H58.7745V51.376H57.8625V40.864H58.7745ZM56.0745 42.004C56.0745 43.556 55.6865 44.968 54.9105 46.24C54.1345 47.504 52.9305 48.544 51.2985 49.36L50.7945 48.664C52.1305 47.992 53.1665 47.152 53.9025 46.144C54.6385 45.136 55.0585 44.004 55.1625 42.748H51.2745V42.004H56.0745ZM63.3948 41.092V43.828H69.6108V44.572H62.5068V41.092H63.3948ZM70.6908 45.82V46.564H61.2108V45.82H70.6908ZM65.9388 47.536C67.0588 47.536 67.9348 47.704 68.5668 48.04C69.2068 48.368 69.5268 48.832 69.5268 49.432C69.5268 50.032 69.2068 50.5 68.5668 50.836C67.9348 51.172 67.0588 51.34 65.9388 51.34C64.8108 51.34 63.9308 51.172 63.2988 50.836C62.6668 50.5 62.3508 50.032 62.3508 49.432C62.3508 48.832 62.6668 48.368 63.2988 48.04C63.9308 47.704 64.8108 47.536 65.9388 47.536ZM65.9388 48.244C65.0988 48.244 64.4388 48.348 63.9588 48.556C63.4868 48.764 63.2508 49.056 63.2508 49.432C63.2508 49.808 63.4868 50.1 63.9588 50.308C64.4388 50.516 65.0988 50.62 65.9388 50.62C66.7788 50.62 67.4348 50.516 67.9068 50.308C68.3788 50.1 68.6148 49.808 68.6148 49.432C68.6148 49.056 68.3788 48.764 67.9068 48.556C67.4348 48.348 66.7788 48.244 65.9388 48.244ZM79.823 40.876V43.564H81.395V44.332H79.823V46.972H78.923V40.876H79.823ZM74.135 47.44V48.592H78.935V47.44H79.823V51.232H73.247V47.44H74.135ZM74.135 50.5H78.935V49.288H74.135V50.5ZM74.375 41.968V40.768H75.275V41.968H77.927V42.7H71.723V41.968H74.375ZM74.819 43.204C75.571 43.204 76.175 43.372 76.631 43.708C77.095 44.044 77.327 44.488 77.327 45.04C77.327 45.6 77.095 46.048 76.631 46.384C76.175 46.72 75.571 46.888 74.819 46.888C74.067 46.888 73.463 46.72 73.007 46.384C72.551 46.048 72.323 45.6 72.323 45.04C72.323 44.48 72.551 44.036 73.007 43.708C73.463 43.372 74.067 43.204 74.819 43.204ZM74.819 43.888C74.331 43.888 73.935 43.996 73.631 44.212C73.327 44.42 73.175 44.696 73.175 45.04C73.175 45.392 73.327 45.676 73.631 45.892C73.935 46.1 74.331 46.204 74.819 46.204C75.307 46.204 75.703 46.1 76.007 45.892C76.311 45.676 76.463 45.392 76.463 45.04C76.463 44.696 76.311 44.42 76.007 44.212C75.703 43.996 75.307 43.888 74.819 43.888ZM90.7433 40.876V51.376H89.8553V40.876H90.7433ZM83.7473 41.908V47.872C85.5233 47.872 87.1873 47.708 88.7393 47.38L88.8593 48.148C87.2033 48.484 85.4873 48.652 83.7113 48.652H82.8473V41.908H83.7473ZM100.728 40.864V45.04H102.468V45.796H100.728V51.388H99.8276V40.864H100.728ZM98.0036 41.908V42.64H94.0196V47.992C95.0596 47.992 95.9356 47.968 96.6476 47.92C97.3676 47.872 98.0916 47.776 98.8196 47.632L98.9276 48.4C98.1596 48.544 97.4036 48.64 96.6596 48.688C95.9236 48.736 95.0196 48.76 93.9476 48.76H93.1316V41.908H98.0036Z" fill="#666B73"/>
<path d="M4 0V30.5L25.5 13.5C13.9 13.5 5.33333 4.5 4 0Z" fill="#EFE5FF"/>
</svg>
