<svg width="31" height="32" viewBox="0 0 31 32" fill="none" xmlns="http://www.w3.org/2000/svg">
<path d="M15.8188 23.2114L9.62018 26.9179C9.43803 27.0069 9.26898 27.043 9.11302 27.0261C8.9582 27.008 8.80736 26.9551 8.6605 26.8671C8.51251 26.777 8.40095 26.6496 8.32581 26.485C8.25068 26.3204 8.24385 26.1406 8.30532 25.9456L9.95487 18.9959L4.49906 14.312C4.34538 14.188 4.24406 14.0398 4.19511 13.8673C4.14616 13.6948 4.15697 13.5297 4.22755 13.3719C4.29813 13.214 4.39205 13.0844 4.50931 12.9829C4.6277 12.8849 4.78708 12.8184 4.98744 12.7834L12.1867 12.1612L14.994 5.58008C15.0714 5.39408 15.183 5.25993 15.3287 5.17764C15.4744 5.09534 15.6378 5.0542 15.8188 5.0542C15.9998 5.0542 16.1637 5.09534 16.3106 5.17764C16.4574 5.25993 16.5684 5.39408 16.6436 5.58008L19.4509 12.1612L26.6484 12.7834C26.8499 12.8172 27.0099 12.8843 27.1283 12.9846C27.2467 13.0838 27.3412 13.2129 27.4117 13.3719C27.4812 13.5297 27.4914 13.6948 27.4425 13.8673C27.3935 14.0398 27.2922 14.188 27.1385 14.312L21.6827 18.9959L23.3323 25.9456C23.396 26.1383 23.3898 26.3176 23.3135 26.4833C23.2372 26.649 23.1251 26.7764 22.9771 26.8654C22.8314 26.9556 22.6805 27.0092 22.5246 27.0261C22.3697 27.043 22.2013 27.0069 22.0191 26.9179L15.8188 23.2114Z" fill="#7E37F9"/>
</svg>
