<svg width="276" height="255" viewBox="0 0 276 255" fill="none" xmlns="http://www.w3.org/2000/svg">
<circle cx="131.204" cy="126.325" r="125.176" fill="#EFE5FF" stroke="#9769E1" stroke-width="0.997421"/>
<circle cx="131.203" cy="126.325" r="86.2769" fill="#DAC2FF" stroke="#9769E1" stroke-width="0.997421"/>
<circle cx="131.203" cy="126.326" r="50.8685" fill="#9769E1"/>
<path d="M149.78 104.5V106.3H142.82V111.64H140.6V106.3H133.68V104.5H149.78ZM140.6 95.9V93.84H142.82V95.9H148.28V97.66H142.84C142.92 98.26 143.213 98.8467 143.72 99.42C144.24 99.98 144.94 100.467 145.82 100.88C146.7 101.28 147.707 101.553 148.84 101.7L148.06 103.42C146.62 103.247 145.347 102.86 144.24 102.26C143.147 101.66 142.307 100.92 141.72 100.04C141.147 100.92 140.307 101.66 139.2 102.26C138.093 102.847 136.807 103.233 135.34 103.42L134.58 101.7C135.713 101.553 136.72 101.28 137.6 100.88C138.493 100.467 139.193 99.98 139.7 99.42C140.207 98.86 140.5 98.2733 140.58 97.66H135.16V95.9H140.6ZM157.42 94.76V96.62C157.42 97.7933 157.78 98.86 158.5 99.82C159.22 100.767 160.234 101.453 161.54 101.88L160.4 103.58C159.467 103.26 158.654 102.787 157.96 102.16C157.28 101.533 156.747 100.8 156.36 99.96C155.974 100.933 155.42 101.773 154.7 102.48C153.994 103.187 153.134 103.727 152.12 104.1L150.94 102.36C152.327 101.88 153.387 101.107 154.12 100.04C154.867 98.96 155.24 97.76 155.24 96.44V94.76H157.42ZM165.08 93.82V98.12H167.56V99.94H165.08V104.44H162.88V93.82H165.08ZM159.34 104.88C161.194 104.88 162.647 105.18 163.7 105.78C164.754 106.367 165.28 107.187 165.28 108.24C165.28 109.293 164.754 110.113 163.7 110.7C162.647 111.3 161.194 111.6 159.34 111.6C157.487 111.6 156.027 111.3 154.96 110.7C153.907 110.113 153.38 109.293 153.38 108.24C153.38 107.187 153.907 106.367 154.96 105.78C156.027 105.18 157.487 104.88 159.34 104.88ZM159.34 106.58C158.127 106.58 157.187 106.727 156.52 107.02C155.867 107.3 155.54 107.707 155.54 108.24C155.54 108.773 155.867 109.187 156.52 109.48C157.187 109.76 158.127 109.9 159.34 109.9C160.554 109.9 161.487 109.76 162.14 109.48C162.794 109.187 163.12 108.773 163.12 108.24C163.12 107.707 162.794 107.3 162.14 107.02C161.487 106.727 160.554 106.58 159.34 106.58ZM181.201 98.2V93.82H183.401V104.42H181.201V100H178.241V98.2H181.201ZM178.761 94.88V96.64H175.101V96.84C175.101 97.9733 175.461 99.0267 176.181 100C176.914 100.973 177.941 101.687 179.261 102.14L178.161 103.86C177.201 103.527 176.374 103.04 175.681 102.4C174.988 101.76 174.441 101.007 174.041 100.14C173.654 101.087 173.088 101.92 172.341 102.64C171.608 103.347 170.728 103.873 169.701 104.22L168.581 102.5C169.941 102.033 170.994 101.28 171.741 100.24C172.501 99.2 172.881 98.0667 172.881 96.84V96.64H169.201V94.88H178.761ZM183.401 105.28V111.62H181.201V107.06H171.381V105.28H183.401ZM200.821 93.82V106.68H198.621V93.82H200.821ZM191.321 105.4V109.5H201.301V111.26H189.141V105.4H191.321ZM191.181 94.98C192.075 94.98 192.881 95.1733 193.601 95.56C194.335 95.9333 194.908 96.4667 195.321 97.16C195.735 97.84 195.941 98.6067 195.941 99.46C195.941 100.3 195.735 101.06 195.321 101.74C194.908 102.42 194.335 102.953 193.601 103.34C192.881 103.727 192.075 103.92 191.181 103.92C190.301 103.92 189.495 103.727 188.761 103.34C188.041 102.953 187.468 102.42 187.041 101.74C186.628 101.06 186.421 100.3 186.421 99.46C186.421 98.6067 186.628 97.84 187.041 97.16C187.468 96.4667 188.041 95.9333 188.761 95.56C189.495 95.1733 190.301 94.98 191.181 94.98ZM191.181 96.88C190.421 96.88 189.795 97.12 189.301 97.6C188.808 98.0667 188.561 98.6867 188.561 99.46C188.561 100.22 188.808 100.833 189.301 101.3C189.808 101.767 190.435 102 191.181 102C191.928 102 192.548 101.767 193.041 101.3C193.548 100.833 193.801 100.22 193.801 99.46C193.801 98.6867 193.555 98.0667 193.061 97.6C192.568 97.12 191.941 96.88 191.181 96.88Z" fill="black"/>
<path d="M21.9867 238.094V241.409H23.8767V242.624H21.9867V245.939H20.5167V238.094H21.9867ZM18.3717 239.024C18.3717 240.734 17.8317 242.199 16.7517 243.419C15.6817 244.629 14.1717 245.514 12.2217 246.074L11.6067 244.889C13.1367 244.459 14.3467 243.839 15.2367 243.029C16.1367 242.209 16.6467 241.274 16.7667 240.224H12.2067V239.024H18.3717ZM17.7867 246.104C18.6567 246.104 19.4217 246.214 20.0817 246.434C20.7417 246.644 21.2467 246.949 21.5967 247.349C21.9567 247.739 22.1367 248.199 22.1367 248.729C22.1367 249.269 21.9567 249.739 21.5967 250.139C21.2467 250.529 20.7417 250.829 20.0817 251.039C19.4317 251.249 18.6667 251.354 17.7867 251.354C16.4467 251.354 15.3817 251.119 14.5917 250.649C13.8017 250.179 13.4067 249.539 13.4067 248.729C13.4067 248.199 13.5867 247.734 13.9467 247.334C14.3067 246.934 14.8167 246.629 15.4767 246.419C16.1367 246.209 16.9067 246.104 17.7867 246.104ZM17.7867 247.259C16.8767 247.259 16.1617 247.389 15.6417 247.649C15.1217 247.909 14.8617 248.269 14.8617 248.729C14.8617 249.189 15.1217 249.549 15.6417 249.809C16.1617 250.069 16.8767 250.199 17.7867 250.199C18.6967 250.199 19.4067 250.069 19.9167 249.809C20.4367 249.549 20.6967 249.189 20.6967 248.729C20.6967 248.269 20.4367 247.909 19.9167 247.649C19.4067 247.389 18.6967 247.259 17.7867 247.259ZM34.257 239.624V238.094H35.742V245.039H34.257V243.224H31.857V242.054H34.257V240.824H31.857V239.624H34.257ZM31.017 238.709V242.174H26.742V243.524C27.742 243.524 28.612 243.504 29.352 243.464C30.102 243.424 30.872 243.349 31.662 243.239L31.767 244.364C30.907 244.494 30.072 244.579 29.262 244.619C28.462 244.659 27.457 244.679 26.247 244.679H25.287V241.109H29.562V239.849H25.257V238.709H31.017ZM35.742 245.639V248.939H28.497V250.139H36.192V251.279H27.042V247.874H34.272V246.764H27.012V245.639H35.742ZM48.2074 238.109V242.339H50.0974V243.569H48.2074V248.039H46.7374V238.109H48.2074ZM41.0524 239.624V238.094H42.5374V239.624H45.7024V240.794H37.8874V239.624H41.0524ZM41.7874 241.439C42.4174 241.439 42.9774 241.544 43.4674 241.754C43.9574 241.954 44.3374 242.244 44.6074 242.624C44.8774 243.004 45.0124 243.444 45.0124 243.944C45.0124 244.434 44.8774 244.869 44.6074 245.249C44.3374 245.629 43.9574 245.924 43.4674 246.134C42.9774 246.344 42.4174 246.449 41.7874 246.449C41.1674 246.449 40.6124 246.344 40.1224 246.134C39.6424 245.924 39.2674 245.629 38.9974 245.249C38.7274 244.869 38.5924 244.434 38.5924 243.944C38.5924 243.444 38.7274 243.004 38.9974 242.624C39.2674 242.244 39.6424 241.954 40.1224 241.754C40.6024 241.544 41.1574 241.439 41.7874 241.439ZM41.7874 242.564C41.2474 242.564 40.8124 242.689 40.4824 242.939C40.1624 243.189 40.0024 243.524 40.0024 243.944C40.0024 244.364 40.1624 244.699 40.4824 244.949C40.8124 245.189 41.2474 245.309 41.7874 245.309C42.3274 245.309 42.7624 245.189 43.0924 244.949C43.4224 244.699 43.5874 244.364 43.5874 243.944C43.5874 243.524 43.4224 243.189 43.0924 242.939C42.7624 242.689 42.3274 242.564 41.7874 242.564ZM41.3074 247.259V249.899H48.7774V251.099H39.8374V247.259H41.3074Z" fill="#8D8D8D"/>
<path d="M166.288 198.104V208.888H164.72V206.024H162.512V204.76H164.72V203.016H162.512V201.752H164.72V198.104H166.288ZM157.824 199.72V198.056H159.392V199.72H162.464V200.968H154.592V199.72H157.824ZM158.576 201.656C159.216 201.656 159.781 201.773 160.272 202.008C160.763 202.232 161.147 202.552 161.424 202.968C161.701 203.373 161.84 203.848 161.84 204.392C161.84 204.925 161.701 205.4 161.424 205.816C161.147 206.221 160.757 206.541 160.256 206.776C159.765 207 159.205 207.112 158.576 207.112C157.957 207.112 157.403 207 156.912 206.776C156.421 206.541 156.037 206.221 155.76 205.816C155.483 205.4 155.344 204.925 155.344 204.392C155.344 203.848 155.483 203.373 155.76 202.968C156.037 202.552 156.416 202.232 156.896 202.008C157.387 201.773 157.947 201.656 158.576 201.656ZM158.576 202.856C158.053 202.856 157.627 203 157.296 203.288C156.976 203.565 156.816 203.933 156.816 204.392C156.816 204.851 156.976 205.219 157.296 205.496C157.627 205.763 158.053 205.896 158.576 205.896C159.109 205.896 159.536 205.763 159.856 205.496C160.187 205.219 160.352 204.851 160.352 204.392C160.352 203.933 160.187 203.565 159.856 203.288C159.536 203 159.109 202.856 158.576 202.856ZM158.656 207.976V210.68H166.608V211.96H157.072V207.976H158.656ZM180.624 198.088V212.248H179.12V204.968H177.392V211.528H175.936V198.376H177.392V203.672H179.12V198.088H180.624ZM174.256 199.784V201.064H170.576V207.56C171.462 207.549 172.24 207.517 172.912 207.464C173.595 207.411 174.288 207.315 174.992 207.176L175.152 208.472C174.342 208.632 173.547 208.739 172.768 208.792C172 208.845 171.067 208.872 169.968 208.872H169.04V199.784H174.256ZM189.921 199.432V208.76H183.297V199.432H189.921ZM184.849 200.68V207.512H188.385V200.68H184.849ZM194.177 198.072V212.264H192.609V198.072H194.177ZM203.729 198.152V198.6C203.729 199.123 203.942 199.619 204.369 200.088C204.806 200.547 205.398 200.936 206.145 201.256C206.892 201.565 207.724 201.768 208.641 201.864L208.113 203.064C206.94 202.915 205.894 202.605 204.977 202.136C204.06 201.667 203.377 201.085 202.929 200.392C202.481 201.085 201.793 201.667 200.865 202.136C199.937 202.605 198.886 202.915 197.713 203.064L197.201 201.864C198.118 201.768 198.95 201.565 199.697 201.256C200.454 200.936 201.046 200.547 201.473 200.088C201.9 199.619 202.113 199.123 202.113 198.6V198.152H203.729ZM209.313 203.848V205.112H203.697V206.328H207.713V209.72H199.617V210.92H208.113V212.12H198.081V208.6H206.161V207.512H198.033V206.328H202.129V205.112H196.529V203.848H209.313Z" fill="black"/>
<path d="M71.66 129.82V137.16H74.1V139H71.66V147.62H69.46V129.82H71.66ZM57.48 142.68C59.4 142.68 60.9 142.667 61.98 142.64V140.96C61.0067 140.8 60.2333 140.433 59.66 139.86C59.0867 139.287 58.8 138.58 58.8 137.74C58.8 137.087 58.98 136.507 59.34 136C59.7 135.493 60.2 135.107 60.84 134.84C61.4933 134.56 62.24 134.42 63.08 134.42C63.92 134.42 64.66 134.56 65.3 134.84C65.9533 135.107 66.46 135.493 66.82 136C67.1933 136.507 67.38 137.087 67.38 137.74C67.38 138.58 67.0867 139.287 66.5 139.86C65.9267 140.433 65.1533 140.8 64.18 140.96V142.54C65.5267 142.487 66.96 142.36 68.48 142.16L68.66 143.74C66.9933 144.06 65.3067 144.267 63.6 144.36C61.9067 144.44 59.9667 144.48 57.78 144.48L57.48 142.68ZM61.98 131.84V129.88H64.18V131.84H68.34V133.58H57.8V131.84H61.98ZM63.08 136.08C62.4133 136.08 61.88 136.227 61.48 136.52C61.08 136.813 60.88 137.22 60.88 137.74C60.88 138.26 61.08 138.667 61.48 138.96C61.88 139.253 62.4133 139.4 63.08 139.4C63.76 139.4 64.3 139.253 64.7 138.96C65.1 138.667 65.3 138.26 65.3 137.74C65.3 137.22 65.1 136.813 64.7 136.52C64.3 136.227 63.76 136.08 63.08 136.08ZM89.9405 129.78V147.64H87.7405V140.32H84.5205V138.56H87.7405V135.46H84.6005V133.68H87.7405V129.78H89.9405ZM83.6205 131.34V138.04H77.9405V141.8C79.2071 141.787 80.3671 141.747 81.4205 141.68C82.4738 141.613 83.5605 141.493 84.6805 141.32L84.8405 143.12C83.6005 143.32 82.3871 143.453 81.2005 143.52C80.0271 143.587 78.6805 143.62 77.1605 143.62H75.7605V136.28H81.4405V133.1H75.7405V131.34H83.6205ZM106.561 129.82V135.4H109.041V137.22H106.561V143.14H104.361V129.82H106.561ZM96.8009 131.78V129.8H99.0009V131.78H103.141V133.52H92.6609V131.78H96.8009ZM97.9009 134.3C98.7409 134.3 99.4876 134.44 100.141 134.72C100.808 135 101.321 135.4 101.681 135.92C102.054 136.427 102.241 137.013 102.241 137.68C102.241 138.347 102.054 138.94 101.681 139.46C101.321 139.98 100.808 140.38 100.141 140.66C99.4876 140.94 98.7409 141.08 97.9009 141.08C97.0609 141.08 96.3143 140.94 95.6609 140.66C95.0076 140.38 94.4943 139.98 94.1209 139.46C93.7609 138.94 93.5809 138.347 93.5809 137.68C93.5809 137.013 93.7609 136.427 94.1209 135.92C94.4943 135.4 95.0076 135 95.6609 134.72C96.3143 134.44 97.0609 134.3 97.9009 134.3ZM97.9009 135.98C97.2343 135.98 96.6943 136.133 96.2809 136.44C95.8809 136.733 95.6809 137.147 95.6809 137.68C95.6809 138.213 95.8809 138.633 96.2809 138.94C96.6943 139.233 97.2343 139.38 97.9009 139.38C98.5676 139.38 99.1009 139.233 99.5009 138.94C99.9143 138.633 100.121 138.213 100.121 137.68C100.121 137.147 99.9143 136.733 99.5009 136.44C99.1009 136.133 98.5676 135.98 97.9009 135.98ZM97.4409 142.1V145.5H107.281V147.26H95.2409V142.1H97.4409Z" fill="black"/>
<path d="M10.05 5.13V2.895H11.52V9.705H10.05V6.315H7.335V5.13H10.05ZM11.52 10.335V13.665H4.365V14.85H11.97V16.005H2.91V12.585H10.065V11.49H2.895V10.335H11.52ZM5.205 3.315V4.44C5.205 5.29 5.485 6.075 6.045 6.795C6.605 7.505 7.37 8.02 8.34 8.34L7.59 9.48C6.88 9.24 6.26 8.885 5.73 8.415C5.21 7.935 4.8 7.38 4.5 6.75C4.21 7.46 3.785 8.075 3.225 8.595C2.675 9.105 2.02 9.49 1.26 9.75L0.495 8.595C1.515 8.275 2.31 7.74 2.88 6.99C3.45 6.23 3.735 5.38 3.735 4.44V3.315H5.205ZM24.5704 2.895V16.17H23.0854V2.895H24.5704ZM17.1454 5.145V3.15H18.6304V5.145H21.5404V6.315H18.6304V7.125C18.6304 7.825 18.7704 8.52 19.0504 9.21C19.3304 9.89 19.7254 10.5 20.2354 11.04C20.7554 11.58 21.3504 11.995 22.0204 12.285L21.2104 13.425C20.4604 13.105 19.8004 12.62 19.2304 11.97C18.6704 11.32 18.2354 10.575 17.9254 9.735C17.6254 10.625 17.1854 11.415 16.6054 12.105C16.0354 12.785 15.3754 13.3 14.6254 13.65L13.8154 12.525C14.4854 12.215 15.0704 11.78 15.5704 11.22C16.0804 10.65 16.4704 10.01 16.7404 9.3C17.0204 8.59 17.1604 7.865 17.1604 7.125V6.315H14.2204V5.145H17.1454ZM33.6757 4.155V12.9H27.4657V4.155H33.6757ZM28.9207 5.325V11.73H32.2357V5.325H28.9207ZM37.6657 2.88V16.185H36.1957V2.88H37.6657ZM46.6211 2.955V3.375C46.6211 3.865 46.8211 4.33 47.2211 4.77C47.6311 5.2 48.1861 5.565 48.8861 5.865C49.5861 6.155 50.3661 6.345 51.2261 6.435L50.7311 7.56C49.6311 7.42 48.6511 7.13 47.7911 6.69C46.9311 6.25 46.2911 5.705 45.8711 5.055C45.4511 5.705 44.8061 6.25 43.9361 6.69C43.0661 7.13 42.0811 7.42 40.9811 7.56L40.5011 6.435C41.3611 6.345 42.1411 6.155 42.8411 5.865C43.5511 5.565 44.1061 5.2 44.5061 4.77C44.9061 4.33 45.1061 3.865 45.1061 3.375V2.955H46.6211ZM51.8561 8.295V9.48H46.5911V10.62H50.3561V13.8H42.7661V14.925H50.7311V16.05H41.3261V12.75H48.9011V11.73H41.2811V10.62H45.1211V9.48H39.8711V8.295H51.8561Z" fill="#8D8D8D"/>
<path d="M246.035 48.175V45.895H247.505V54.07H246.035V51.79H244.1V50.59H246.035V49.36H244.1V48.175H246.035ZM243.89 46.84V48.04H242.66V52C243.36 51.94 243.875 51.89 244.205 51.85L244.295 52.93C243.175 53.12 241.99 53.245 240.74 53.305C239.5 53.355 238.155 53.38 236.705 53.38L236.555 52.165H238.1V48.04H236.9V46.84H243.89ZM243.11 54.31C244.5 54.31 245.59 54.525 246.38 54.955C247.17 55.375 247.565 55.965 247.565 56.725C247.565 57.495 247.17 58.09 246.38 58.51C245.59 58.94 244.5 59.155 243.11 59.155C241.71 59.155 240.61 58.94 239.81 58.51C239.02 58.09 238.625 57.495 238.625 56.725C238.625 55.965 239.02 55.375 239.81 54.955C240.61 54.525 241.71 54.31 243.11 54.31ZM243.11 55.435C242.14 55.435 241.395 55.55 240.875 55.78C240.355 56 240.095 56.315 240.095 56.725C240.095 57.135 240.355 57.455 240.875 57.685C241.405 57.915 242.15 58.03 243.11 58.03C244.06 58.03 244.795 57.915 245.315 57.685C245.845 57.455 246.11 57.135 246.11 56.725C246.11 56.315 245.845 56 245.315 55.78C244.795 55.55 244.06 55.435 243.11 55.435ZM241.25 52.075V48.04H239.54V52.135L241.25 52.075ZM256.37 47.005V48.145H259.16V45.91H260.63V55.57H259.16V52.18H256.37V53.335H250.235V47.005H256.37ZM251.675 48.19V52.15H254.93V48.19H251.675ZM253.49 54.685V57.7H260.93V58.9H252.005V54.685H253.49ZM259.16 50.98V49.33H256.37V50.98H259.16ZM273.111 45.895V51.43H275.031V52.675H273.111V59.17H271.641V45.895H273.111ZM262.611 55.54C264.091 55.54 265.241 55.53 266.061 55.51V54.175C265.321 54.065 264.731 53.795 264.291 53.365C263.851 52.935 263.631 52.405 263.631 51.775C263.631 51.285 263.766 50.855 264.036 50.485C264.306 50.105 264.676 49.815 265.146 49.615C265.626 49.405 266.176 49.3 266.796 49.3C267.416 49.3 267.966 49.405 268.446 49.615C268.926 49.815 269.301 50.105 269.571 50.485C269.841 50.855 269.976 51.285 269.976 51.775C269.976 52.405 269.751 52.935 269.301 53.365C268.861 53.795 268.271 54.065 267.531 54.175V55.45C268.821 55.38 269.936 55.28 270.876 55.15L270.996 56.215C269.756 56.455 268.496 56.605 267.216 56.665C265.936 56.725 264.471 56.755 262.821 56.755L262.611 55.54ZM266.061 47.44V45.94H267.531V47.44H270.741V48.625H262.851V47.44H266.061ZM266.796 50.425C266.256 50.425 265.826 50.545 265.506 50.785C265.186 51.025 265.026 51.355 265.026 51.775C265.026 52.185 265.186 52.51 265.506 52.75C265.826 52.99 266.256 53.11 266.796 53.11C267.336 53.11 267.766 52.99 268.086 52.75C268.416 52.51 268.581 52.185 268.581 51.775C268.581 51.355 268.416 51.025 268.086 50.785C267.766 50.545 267.336 50.425 266.796 50.425Z" fill="#8D8D8D"/>
</svg>
